<?xml version="1.0" standalone="no"?><!DOCTYPE svg PUBLIC "-//W3C//DTD SVG 1.1//EN" "http://www.w3.org/Graphics/SVG/1.1/DTD/svg11.dtd"><svg t="1706887624478" class="icon" viewBox="0 0 1024 1024" version="1.1" xmlns="http://www.w3.org/2000/svg" p-id="5759" xmlns:xlink="http://www.w3.org/1999/xlink" width="200" height="200"><path d="M803.555556 336.554667h-597.333334c-19.626667 0-35.555556 15.928889-35.555555 35.555555V945.777778c0 19.626667 15.928889 35.555556 35.555555 35.555555h597.333334c19.626667 0 35.555556-15.928889 35.555555-35.555555V372.110222c0-19.626667-15.928889-35.555556-35.555555-35.555555z m-35.555556 71.111111V910.222222H241.777778V407.665778H768z" fill="#212121" p-id="5760"></path><path d="M552.903111 548.551111v71.111111h-245.333333v-71.111111zM478.236444 673.28v71.111111h-170.666666v-71.111111zM654.222222 407.665778H355.555556c-19.626667 0-35.555556-15.928889-35.555556-35.555556v-142.222222c0-19.626667 15.928889-35.555556 35.555556-35.555556H654.222222c19.626667 0 35.555556 15.928889 35.555556 35.555556v142.222222c0 19.626667-15.928889 35.555556-35.555556 35.555556z m-35.555555-71.111111v-71.111111h-227.555556v71.111111h227.555556z" fill="#212121" p-id="5761"></path><path d="M540.444444 56.888889v208.128h-71.111111V56.888889z" fill="#212121" p-id="5762"></path><path d="M637.240889 56.888889v71.111111h-219.648l-84.622222 38.912-29.667556-64.625778 91.733333-42.154666a35.555556 35.555556 0 0 1 11.036445-3.043556L409.884444 56.888889h227.356445z" fill="#212121" p-id="5763"></path></svg>